Coordinates
version=1
nRows=14
nColumns=40
inDegrees=yes

Units are S.I. units (second, meters, Newtons, ...)
If the header above contains a line with 'inDegrees', this indicates whether rotational values are in degrees (yes) or radians (no).

endheader
time	pelvis_tilt	pelvis_list	pelvis_rotation	pelvis_tx	pelvis_ty	pelvis_tz	hip_flexion_r	hip_adduction_r	hip_rotation_r	knee_angle_r	knee_angle_r_beta	ankle_angle_r	subtalar_angle_r	mtp_angle_r	hip_flexion_l	hip_adduction_l	hip_rotation_l	knee_angle_l	knee_angle_l_beta	ankle_angle_l	subtalar_angle_l	mtp_angle_l	lumbar_extension	lumbar_bending	lumbar_rotation	arm_flex_r	arm_add_r	arm_rot_r	elbow_flex_r	pro_sup_r	wrist_flex_r	wrist_dev_r	arm_flex_l	arm_add_l	arm_rot_l	elbow_flex_l	pro_sup_l	wrist_flex_l	wrist_dev_l
      9.97500000	     88.55292276	     67.39624250	     89.00668609	      0.37966189	      0.61685710	      0.83410411	     51.60092515	     -9.90388690	     -7.39835260	     25.26899038	      0.44102708	     -2.95051716	      0.00000000	      0.00000000	     47.07459560	    -15.33639782	    -14.40462768	     19.54897849	      0.34119404	     -4.94371736	      0.00000000	      0.00000000	    -30.02553146	     -7.81620684	      3.21915481	     39.43617840	     -0.85392328	      3.86319873	     10.75598392	     35.86536711	      0.00000000	      0.00000000	     40.22016683	     -0.67737606	    -30.63515756	     16.51136581	     35.08811918	      0.00000000	      0.00000000
      9.98000000	     88.49932380	     67.29604953	     88.99059630	      0.38060013	      0.61708833	      0.83374240	     51.78886423	     -9.86292418	     -7.36163494	     25.25460946	      0.44077609	     -3.10138544	      0.00000000	      0.00000000	     47.24083963	    -15.40389688	    -14.52654981	     19.56295355	      0.34143795	     -5.08375344	      0.00000000	      0.00000000	    -30.21650480	     -7.94946961	      3.35721938	     39.42252743	     -1.24752297	      6.01145200	     10.98442042	     37.20675475	      0.00000000	      0.00000000	     39.25311975	     -0.96469681	    -26.54610770	     17.90565079	     36.76533938	      0.00000000	      0.00000000
      9.98500000	     88.51473342	     66.99665413	     88.99472959	      0.38148043	      0.61712173	      0.83307079	     52.17380552	     -9.87495427	     -7.40236329	     25.26518411	      0.44096065	     -3.12984452	      0.00000000	      0.00000000	     47.63756822	    -15.40459300	    -14.47584159	     19.55699449	      0.34133395	     -5.15823369	      0.00000000	      0.00000000	    -30.23172424	     -7.91904943	      3.27403614	     40.19694302	     -0.63818852	      2.36938863	     10.53275335	     33.68213847	      0.00000000	      0.00000000	     40.59353659	     -0.68539161	    -29.92681662	     16.87635636	     32.54604991	      0.00000000	      0.00000000
      9.99000000	     88.52030501	     66.74063470	     88.98624360	      0.38246898	      0.61720384	      0.83240767	     52.53944733	     -9.87082973	     -7.40296748	     25.28827397	      0.44136364	     -3.25421390	      0.00000000	      0.00000000	     48.01657691	    -15.43032693	    -14.45331943	     19.61030621	      0.34226441	     -5.21060399	      0.00000000	      0.00000000	    -30.27497252	     -7.95262446	      3.19179054	     40.29567181	     -0.76774331	      3.45683684	     10.71534585	     34.43265204	      0.00000000	      0.00000000	     40.80611624	     -0.77801983	    -30.07348059	     16.78095375	     33.43895010	      0.00000000	      0.00000000
      9.99500000	     88.48962760	     66.50662372	     88.98984042	      0.38345342	      0.61737802	      0.83176219	     52.88695320	     -9.84816718	     -7.35300060	     25.33529384	      0.44218429	     -3.31135930	      0.00000000	      0.00000000	     48.34834799	    -15.45956826	    -14.44136700	     19.63526138	      0.34269996	     -5.32807029	      0.00000000	      0.00000000	    -30.31998116	     -8.03375413	      3.26426916	     40.37737912	     -0.99603914	      4.99366718	     10.76725357	     35.68301865	      0.00000000	      0.00000000	     40.30965080	     -0.96756788	    -27.49074998	     17.57041812	     34.96597041	      0.00000000	      0.00000000
     10.00000000	     88.50372710	     66.28291834	     88.94791485	      0.38425717	      0.61753704	      0.83122017	     53.18342376	     -9.82138566	     -7.37740760	     25.31891023	      0.44189835	     -3.41916344	      0.00000000	      0.00000000	     48.64946245	    -15.51242274	    -14.50279259	     19.63986119	      0.34278024	     -5.40544776	      0.00000000	      0.00000000	    -30.40631247	     -8.04827376	      3.21182953	     40.66652740	     -0.89115945	      4.47739067	     10.76867532	     35.68049364	      0.00000000	      0.00000000	     41.17205636	     -0.84173570	    -29.52709137	     16.86824746	     34.94356059	      0.00000000	      0.00000000
     10.00500000	     88.49114622	     66.11370764	     88.92822669	      0.38512495	      0.61766271	      0.83078357	     53.42690880	     -9.79983210	     -7.39030075	     25.30311073	      0.44162259	     -3.52833988	      0.00000000	      0.00000000	     48.88919608	    -15.54877776	    -14.53951987	     19.63084875	      0.34262295	     -5.52849989	      0.00000000	      0.00000000	    -30.56242733	     -8.09055622	      3.24033298	     40.93406102	     -0.87177663	      4.01078749	     10.80987919	     35.65175985	      0.00000000	      0.00000000	     41.57302273	     -0.83871479	    -29.69564449	     16.71743879	     34.92694785	      0.00000000	      0.00000000
     10.01000000	     88.48599927	     65.87505707	     88.92333494	      0.38599565	      0.61775289	      0.83021537	     53.74175709	     -9.79265960	     -7.38472473	     25.29857671	      0.44154346	     -3.64095712	      0.00000000	      0.00000000	     49.19262952	    -15.55899333	    -14.53870989	     19.58785348	      0.34187254	     -5.63657671	      0.00000000	      0.00000000	    -30.61278569	     -8.13260923	      3.25735973	     41.20952021	     -0.84787997	      3.67730562	     10.80372880	     35.41089462	      0.00000000	      0.00000000	     41.86883721	     -0.75424247	    -29.65445621	     16.80218911	     34.70463253	      0.00000000	      0.00000000
     10.01500000	     88.47302496	     65.66686185	     88.88536771	      0.38693402	      0.61794835	      0.82961116	     54.04454008	     -9.73974243	     -7.34177348	     25.28968657	      0.44138830	     -3.77026838	      0.00000000	      0.00000000	     49.49616946	    -15.61092595	    -14.54144930	     19.63137875	      0.34263220	     -5.63770675	      0.00000000	      0.00000000	    -30.69234014	     -8.22723760	      3.31763153	     41.32373533	     -1.04833058	      4.86053846	     10.89936228	     36.24888538	      0.00000000	      0.00000000	     41.32256449	     -1.01400276	    -27.04541121	     17.60899039	     35.71714329	      0.00000000	      0.00000000
     10.02000000	     88.40973693	     65.61843733	     88.86396587	      0.38773608	      0.61820733	      0.82936493	     54.14996195	     -9.66997685	     -7.27828815	     25.22574781	      0.44027236	     -3.94350711	      0.00000000	      0.00000000	     49.56994494	    -15.67942035	    -14.68763172	     19.59002733	      0.34191048	     -5.87063518	      0.00000000	      0.00000000	    -30.95071013	     -8.36191828	      3.41455638	     41.34011117	     -1.30273564	      6.19922866	     11.18945169	     37.19149196	      0.00000000	      0.00000000	     41.09959101	     -1.20670387	    -24.62891611	     18.14606272	     36.86505905	      0.00000000	      0.00000000
     10.02500000	     88.50373900	     65.20861173	     88.88531096	      0.38864274	      0.61803223	      0.82842008	     54.65029161	     -9.74279142	     -7.42370447	     25.28444214	      0.44129676	     -3.96724339	      0.00000000	      0.00000000	     50.11463205	    -15.60074066	    -14.43133775	     19.57074468	      0.34157393	     -5.92908988	      0.00000000	      0.00000000	    -30.81862863	     -8.23794398	      3.19633391	     41.84645416	     -1.03071011	      5.45828626	     10.78167180	     36.84337021	      0.00000000	      0.00000000	     41.89290215	     -0.92635411	    -27.65017488	     17.64077370	     36.56890847	      0.00000000	      0.00000000
     10.03000000	     88.40032276	     65.11738409	     88.80333130	      0.38946564	      0.61855341	      0.82811668	     54.85646811	     -9.63008927	     -7.40534319	     25.28717390	      0.44134444	     -4.12689515	      0.00000000	      0.00000000	     50.20451237	    -15.74124151	    -14.62700766	     19.53523648	      0.34095420	     -6.04247223	      0.00000000	      0.00000000	    -31.03332330	     -8.45421766	      3.39922606	     41.96036472	     -1.12099266	      5.75955560	     11.01125549	     37.22506055	      0.00000000	      0.00000000	     41.87951158	     -1.11555606	    -25.74688025	     17.88894133	     37.00783769	      0.00000000	      0.00000000
     10.03500000	     88.43203102	     64.95961626	     88.80847556	      0.39032165	      0.61858444	      0.82753037	     55.09266907	     -9.66725817	     -7.52223927	     25.34472862	      0.44234896	     -4.15035290	      0.00000000	      0.00000000	     50.51119519	    -15.75224305	    -14.60477630	     19.65018028	      0.34296034	     -6.01954726	      0.00000000	      0.00000000	    -31.16348092	     -8.53314238	      3.61373087	     41.35908757	     -1.75653462	      6.88048316	     12.34932257	     38.15999951	      0.00000000	      0.00000000	     41.65916078	     -1.42873655	    -22.15194943	     18.16335106	     38.03519770	      0.00000000	      0.00000000
     10.04000000	     88.45469509	     64.69312446	     88.85884769	      0.39138748	      0.61851427	      0.82689893	     55.42024808	     -9.69721109	     -7.53380307	     25.29261275	      0.44143937	     -4.16493036	      0.00000000	      0.00000000	     50.79502083	    -15.63513411	    -14.24602107	     19.40751037	      0.33872496	     -6.20769030	      0.00000000	      0.00000000	    -31.21039325	     -8.58089131	      3.74700810	     40.71653258	     -2.41746701	      7.89646111	     13.94370085	     38.98111153	      0.00000000	      0.00000000	     41.33247491	     -1.71418412	    -19.03343240	     18.83099120	     38.94665998	      0.00000000	      0.00000000
